{"title":"Twista ft Chris Brown - Make A Movie [KingPinVideos]","uid":5844629,"size":79341209,"categoryP":"video","categoryS":"music_videos","magnet":"?xt=urn:btih:a91ecf0b68cc54e60c3400b8d5ba5308d839bd1f&amp;dn=Twista+ft+Chris+Brown+-+Make+A+Movie+%5BKingPinVideos%5D&amp;tr=udp%3A%2F%2Ftracker.openbittorrent.com%3A80&amp;tr=udp%3A%2F%2Fopen.demonii.com%3A1337&amp;tr=udp%3A%2F%2Ftracker.coppersurfer.tk%3A6969&amp;tr=udp%3A%2F%2Fexodus.desync.com%3A6969","seeders":0,"leechers":0,"uploader":"KingPinMan","files":5,"time":1285115278,"description":"[img]http://img295.imageshack.us/img295/2887/twistamakeamovie.png[/img]\n\n[img]http://img844.imageshack.us/img844/280/twistamakeamovie2.png[/img]\n\n[code]General\nComplete name                    : Twista ft Chris Brown - Make A Movie [KingPinVideos].mpg\nFormat                           : MPEG-PS\nFile size                        : 75.7 MiB\nDuration                         : 3mn 42s\nOverall bit rate                 : 2 856 Kbps\nWriting library                  : encoded by TMPGEnc 4.0 XPress Version. 4.7.4.299\n\nVideo\nID                               : 224 (0xE0)\nFormat                           : MPEG Video\nFormat version                   : Version 1\nFormat settings, BVOP            : Yes\nFormat settings, Matrix          : Default\nDuration                         : 3mn 42s\nBit rate mode                    : Constant\nBit rate                         : 2 615 Kbps\nNominal bit rate                 : 2 700 Kbps\nWidth                            : 384 pixels\nHeight                           : 208 pixels\nDisplay aspect ratio             : 16:9\nFrame rate                       : 29.970 fps\nResolution                       : 8 bits\nScan type                        : Progressive\nBits/(Pixel*Frame)               : 1.092\nStream size                      : 69.3 MiB (92%)\nWriting library                  : TMPGEnc XPress 4.7.4.299\n\nAudio\nID                               : 192 (0xC0)\nFormat                           : MPEG Audio\nFormat version                   : Version 1\nFormat profile                   : Layer 2\nDuration                         : 3mn 42s\nBit rate mode                    : Constant\nBit rate                         : 128 Kbps\nChannel(s)                       : 2 channels\nSampling rate                    : 48.0 KHz\nStream size                      : 3.39 MiB (4%)[/code]","torrent":{"xt":"urn:btih:a91ecf0b68cc54e60c3400b8d5ba5308d839bd1f","amp;dn":"Twista+ft+Chris+Brown+-+Make+A+Movie+%5BKingPinVideos%5D","amp;tr":["udp%3A%2F%2Ftracker.openbittorrent.com%3A80","udp%3A%2F%2Fopen.demonii.com%3A1337","udp%3A%2F%2Ftracker.coppersurfer.tk%3A6969","udp%3A%2F%2Fexodus.desync.com%3A6969"],"infoHash":"a91ecf0b68cc54e60c3400b8d5ba5308d839bd1f","infoHashBuffer":{"type":"Buffer","data":[169,30,207,11,104,204,84,230,12,52,0,184,213,186,83,8,216,57,189,31]},"announce":[],"urlList":[]}}